<?xml version="1.0" encoding="UTF-8" standalone="no"?>
<!-- Created with Inkscape (http://www.inkscape.org/) -->

<svg
   xmlns:dc="http://purl.org/dc/elements/1.1/"
   xmlns:cc="http://creativecommons.org/ns#"
   xmlns:rdf="http://www.w3.org/1999/02/22-rdf-syntax-ns#"
   xmlns:svg="http://www.w3.org/2000/svg"
   xmlns="http://www.w3.org/2000/svg"
   xmlns:sodipodi="http://sodipodi.sourceforge.net/DTD/sodipodi-0.dtd"
   xmlns:inkscape="http://www.inkscape.org/namespaces/inkscape"
   width="1176.782"
   height="1123.8774"
   id="svg2"
   version="1.1"
   inkscape:version="0.48.4 r9939"
   sodipodi:docname="Whaaale.svg">
  <defs
     id="defs4">
    <clipPath
       clipPathUnits="userSpaceOnUse"
       id="clipPath3813">
      <path
         sodipodi:type="arc"
         style="fill:#007180;fill-opacity:1"
         id="path3815"
         sodipodi:cx="-917.21851"
         sodipodi:cy="59.382233"
         sodipodi:rx="70.710678"
         sodipodi:ry="57.578693"
         d="m -846.50783,59.382233 a 70.710678,57.578693 0 1 1 -141.42135,0 70.710678,57.578693 0 1 1 141.42135,0 z"
         transform="matrix(1,0,0,1.2280702,0,-26.6753)" />
    </clipPath>
    <clipPath
       clipPathUnits="userSpaceOnUse"
       id="clipPath3780">
      <path
         sodipodi:type="arc"
         style="opacity:0.21052629;fill:#ffff00;fill-opacity:1;stroke:none"
         id="path3782"
         sodipodi:cx="-752.56366"
         sodipodi:cy="1039.2302"
         sodipodi:rx="69.700523"
         sodipodi:ry="154.55334"
         d="m -682.86314,1039.2302 a 69.700523,154.55334 0 1 1 -139.40104,0 69.700523,154.55334 0 1 1 139.40104,0 z"
         transform="matrix(0.97503563,-0.22204845,0.22204845,0.97503563,-261.66857,-127.01973)" />
    </clipPath>
  </defs>
  <sodipodi:namedview
     id="base"
     pagecolor="#ffffff"
     bordercolor="#666666"
     borderopacity="1.0"
     inkscape:pageopacity="0.0"
     inkscape:pageshadow="2"
     inkscape:zoom="0.35"
     inkscape:cx="967.58638"
     inkscape:cy="463.33483"
     inkscape:document-units="px"
     inkscape:current-layer="layer1"
     showgrid="false"
     showguides="true"
     inkscape:guide-bbox="true"
     inkscape:window-width="1280"
     inkscape:window-height="922"
     inkscape:window-x="0"
     inkscape:window-y="31"
     inkscape:window-maximized="1"
     fit-margin-top="0"
     fit-margin-left="0"
     fit-margin-right="0"
     fit-margin-bottom="0" />
  <metadata
     id="metadata7">
    <rdf:RDF>
      <cc:Work
         rdf:about="">
        <dc:format>image/svg+xml</dc:format>
        <dc:type
           rdf:resource="http://purl.org/dc/dcmitype/StillImage" />
        <dc:title />
      </cc:Work>
    </rdf:RDF>
  </metadata>
  <g
     inkscape:label="Layer 1"
     inkscape:groupmode="layer"
     id="layer1"
     transform="translate(807.44065,-67.997159)">
    <g
       id="g3826">
      <path
         sodipodi:nodetypes="sssss"
         inkscape:connector-curvature="0"
         id="path3014"
         d="M -155.43282,286.47936 C -56.558986,368.22859 -49.454431,564.28559 -28.745272,555.39497 -8.0361103,546.50437 -35.671586,448.8891 -90.470835,337.36514 -145.27009,225.8412 -206.48175,142.64045 -227.19092,151.53105 c -20.70915,8.89062 -38.36905,43.89483 71.7581,134.94831 z"
         style="fill:#ff6600;fill-opacity:1" />
      <path
         style="fill:#ff0000;fill-opacity:1"
         d="m -203.3677,373.56417 c 112.255902,46.95831 152.960693,178.37733 172.008463,170.69893 19.047751,-7.6784 -25.159216,-71.14133 -98.739043,-141.74843 -73.57981,-70.60711 -148.6693,-121.62089 -167.71705,-113.9425 -19.04776,7.6784 -30.58468,32.68912 94.44763,84.992 z"
         id="path3017"
         inkscape:connector-curvature="0"
         sodipodi:nodetypes="sssss" />
      <path
         sodipodi:nodetypes="sssss"
         inkscape:connector-curvature="0"
         id="path3019"
         d="M -72.669032,230.5982 C -1.7751423,345.13032 -52.259869,553.05886 -29.809105,549.73306 -7.358348,546.40724 -5.3237963,435.88809 -25.264826,302.8816 -45.205844,169.8751 -79.571179,64.748142 -102.02194,68.073943 -124.4727,71.399756 -151.63172,103.03064 -72.669032,230.5982 z"
         style="fill:#ffff00;fill-opacity:1" />
      <path
         style="fill:#00ff00;fill-opacity:1"
         d="M 55.272713,299.27185 C -21.429318,401.88451 18.158517,594.08157 -4.0753818,590.29382 -26.309271,586.50607 -22.600625,485.16622 4.2081155,363.9449 31.016859,242.72359 70.773758,147.52489 93.007647,151.31263 c 22.233893,3.78776 47.696913,33.66774 -37.734934,147.95922 z"
         id="path3023"
         inkscape:connector-curvature="0"
         sodipodi:nodetypes="sssss" />
      <path
         sodipodi:nodetypes="sssss"
         inkscape:connector-curvature="0"
         id="path3025"
         d="M 105.50467,376.2796 C 7.7429954,448.47958 -0.27819781,585.75488 -20.618117,582.81042 -40.958016,579.86596 -13.241621,507.75868 41.288209,421.75429 95.818031,335.74991 156.51194,268.41655 176.85183,271.361 c 20.33992,2.94446 37.54123,24.50119 -71.34716,104.9186 z"
         style="fill:#00ffff;fill-opacity:1" />
      <path
         sodipodi:nodetypes="ssssssss"
         inkscape:connector-curvature="0"
         id="path2985"
         d="m 365.71429,800.93363 c 6.49014,152.47342 -104.52897,258.63547 -327.142858,271.42857 -80.422499,4.6217 -251.644752,14.7768 -377.108582,-43.1675 -160.04149,-73.91355 -271.77844,-238.53668 -274.53,-348.36085 -1.00492,-40.10948 76.52406,-119.57764 86.33577,-59.13507 12.73153,78.42941 146.34361,114.71386 149.58852,107.80628 80.85722,-172.1244 252.54231,-249.21781 407.142863,-240.00001 181.930877,10.84733 329.540517,166.38792 335.714287,311.42858 z"
         style="fill:#008080;fill-opacity:1;stroke:none" />
      <path
         sodipodi:nodetypes="ssssss"
         inkscape:connector-curvature="0"
         id="path2990"
         d="m -491.96015,490.16547 c 23.25531,56.06125 14.40372,114.52871 -19.77059,130.59072 -34.1743,16.06202 -79.30175,42.78329 -102.55706,-13.27796 -23.25531,-56.06125 3.00138,-91.1383 38.29449,-119.35752 18.80512,-15.03596 24.45511,-94.67931 43.44202,-129.13222 9.05048,-16.42265 31.96709,110.3871 40.59114,131.17698 z"
         style="fill:#008080;fill-opacity:1" />
      <path
         style="fill:#008080;fill-opacity:1"
         d="m -741.00179,607.21573 c 23.2553,56.06124 69.81117,88.48704 103.98547,72.42503 34.1743,-16.06202 83.12814,-33.5592 59.87283,-89.62046 -23.25531,-56.06125 -65.29738,-59.0377 -108.66587,-50.28575 -23.10792,4.66328 -82.20889,-44.54694 -118.92006,-52.8216 -17.49906,-3.94429 55.10357,99.51288 63.72763,120.30278 z"
         id="path2993"
         inkscape:connector-curvature="0"
         sodipodi:nodetypes="ssssss" />
      <path
         transform="matrix(0.99842801,-0.05604916,0.05604916,0.99842801,-34.339724,-13.055961)"
         d="m 30,510.21933 c 0,5.91734 -21.4263729,10.71429 -47.857143,10.71429 -26.430771,0 -47.857144,-4.79695 -47.857144,-10.71429 0,-5.91734 21.426373,-10.71429 47.857144,-10.71429 C 8.5736271,499.50504 30,504.30199 30,510.21933 z"
         sodipodi:ry="10.714286"
         sodipodi:rx="47.857143"
         sodipodi:cy="510.21933"
         sodipodi:cx="-17.857143"
         id="path3034"
         style="fill:#007180;fill-opacity:1"
         sodipodi:type="arc" />
      <path
         transform="matrix(0.05671891,-0.99839019,0.99839019,0.05671891,-329.78995,-460.20952)"
         clip-path="url(#clipPath3813)"
         style="fill:#ff6600;fill-opacity:1"
         d="m -810.01167,110.71282 c 118.64588,48.80705 47.38954,302.04989 68.0987,293.15927 20.70916,-8.8906 -6.92631,-106.50587 -61.72556,-218.02983 C -858.43779,74.318318 -919.64945,-8.8824317 -940.35862,0.00816828 -961.06777,8.8987883 -928.22004,62.085744 -810.01167,110.71282 z"
         id="path3809"
         inkscape:connector-curvature="0"
         sodipodi:nodetypes="sssss" />
      <path
         sodipodi:nodetypes="sssss"
         inkscape:connector-curvature="0"
         id="path3817"
         d="m -810.01167,110.71282 c 118.64588,48.80705 47.38954,302.04989 68.0987,293.15927 20.70916,-8.8906 -6.92631,-106.50587 -61.72556,-218.02983 C -858.43779,74.318318 -919.64945,-8.8824317 -940.35862,0.00816828 -961.06777,8.8987883 -928.22004,62.085744 -810.01167,110.71282 z"
         style="fill:#00ff00;fill-opacity:1"
         clip-path="url(#clipPath3813)"
         transform="matrix(0.30510799,-0.95231776,-0.95231776,-0.30510799,547.86525,-453.14471)" />
      <path
         transform="matrix(-0.21192761,-0.97728537,-0.97728537,0.21192761,169.91999,-518.56593)"
         clip-path="url(#clipPath3813)"
         style="fill:#00ffff;fill-opacity:1"
         d="m -810.01167,110.71282 c 118.64588,48.80705 47.38954,302.04989 68.0987,293.15927 20.70916,-8.8906 -6.92631,-106.50587 -61.72556,-218.02983 C -858.43779,74.318318 -919.64945,-8.8824317 -940.35862,0.00816828 -961.06777,8.8987883 -928.22004,62.085744 -810.01167,110.71282 z"
         id="path3819"
         inkscape:connector-curvature="0"
         sodipodi:nodetypes="sssss" />
      <path
         transform="matrix(0.87337232,-0.48705317,0.48705317,0.87337232,-348.11201,181.8989)"
         d="m 286.88332,760.4281 c 0,70.85226 -49.74867,128.28937 -111.11678,128.28937 -61.3681,0 -111.116783,-57.43711 -111.116783,-128.28937 0,-70.85226 49.748683,-128.28937 111.116783,-128.28937 61.36811,0 111.11678,57.43711 111.11678,128.28937 z"
         sodipodi:ry="128.28937"
         sodipodi:rx="111.11678"
         sodipodi:cy="760.4281"
         sodipodi:cx="175.76654"
         id="path3821"
         style="fill:#ffffff;fill-opacity:1"
         sodipodi:type="arc" />
      <path
         sodipodi:type="arc"
         style="fill:#000000;fill-opacity:1"
         id="path3823"
         sodipodi:cx="175.76654"
         sodipodi:cy="760.4281"
         sodipodi:rx="111.11678"
         sodipodi:ry="128.28937"
         d="m 286.88332,760.4281 c 0,70.85226 -49.74867,128.28937 -111.11678,128.28937 -61.3681,0 -111.116783,-57.43711 -111.116783,-128.28937 0,-70.85226 49.748683,-128.28937 111.116783,-128.28937 61.36811,0 111.11678,57.43711 111.11678,128.28937 z"
         transform="matrix(0.29459754,-0.40894168,0.37414986,0.45675818,-110.35261,455.34933)" />
      <path
         transform="matrix(1.2321678,0,0,0.87822501,980.64461,542.34238)"
         d="m -591.94937,177.57008 c 0,18.96833 -11.30652,34.34519 -25.25382,34.34519 -13.94729,0 -25.25381,-15.37686 -25.25381,-34.34519 0,-18.96832 11.30652,-34.34518 25.25381,-34.34518 13.9473,0 25.25382,15.37686 25.25382,34.34518 z"
         sodipodi:ry="34.345188"
         sodipodi:rx="25.253813"
         sodipodi:cy="177.57008"
         sodipodi:cx="-617.20319"
         id="path3839"
         style="fill:#ffffff;fill-opacity:1"
         sodipodi:type="arc" />
      <path
         sodipodi:type="arc"
         style="fill:#ffffff;fill-opacity:1"
         id="path3841"
         sodipodi:cx="-617.20319"
         sodipodi:cy="177.57008"
         sodipodi:rx="25.253813"
         sodipodi:ry="34.345188"
         d="m -591.94937,177.57008 c 0,18.96833 -11.30652,34.34519 -25.25382,34.34519 -13.94729,0 -25.25381,-15.37686 -25.25381,-34.34519 0,-18.96832 11.30652,-34.34518 25.25381,-34.34518 13.9473,0 25.25382,15.37686 25.25382,34.34518 z"
         transform="matrix(0.42993902,0,0,0.28125932,473.735,681.08854)" />
      <path
         transform="matrix(-0.46951792,0.88292294,-0.88292294,-0.46951792,703.87906,2158.5958)"
         clip-path="url(#clipPath3780)"
         d="m -989.94952,1062.4637 c 10.33207,5.1661 -1.86624,16.4762 -8.5863,17.1726 -18.21098,1.8873 -28.17628,-18.9227 -25.75888,-34.3452 4.3241,-27.5871 35.00251,-40.8762 60.10408,-34.3451 36.83756,9.5846 53.85476,51.265 42.93146,85.8629 -14.55903,46.1136 -67.5878,66.9461 -111.62184,51.5178 -55.4124,-19.4149 -80.0944,-83.9381 -60.1041,-137.3808 24.211,-64.72612 100.30381,-93.27563 163.13967,-68.6903 74.04989,28.97296 106.47754,116.6789 77.27664,188.8985 -33.71359,83.3804 -133.06043,119.6932 -214.65741,85.863 -92.7157,-38.4401 -132.9184,-149.4464 -94.4492,-240.41635 43.1565,-102.05453 165.83557,-146.1506 266.17517,-103.03551 111.39598,47.86591 159.38807,182.22726 111.62181,291.93406"
         sodipodi:t0="0"
         sodipodi:argument="-18.385908"
         sodipodi:radius="230.39452"
         sodipodi:revolution="3"
         sodipodi:expansion="1"
         sodipodi:cy="1062.4637"
         sodipodi:cx="-989.94952"
         id="path3008"
         style="fill:none;stroke:#000000;stroke-width:1px;stroke-linecap:butt;stroke-linejoin:miter;stroke-opacity:1"
         sodipodi:type="spiral" />
      <path
         style="fill:#008080;fill-opacity:1"
         d="m -82.119696,1162.4865 c 60.419197,-5.7627 107.900746,-41.0087 106.053069,-78.7242 -1.847192,-37.7155 0.580168,-90.10462 -59.839004,-84.34192 -152.555409,1.51952 -114.660219,82.61582 -181.102739,188.75852 -10.25739,15.6971 112.48275,-23.5553 134.888674,-25.6924 z"
         id="path3824"
         inkscape:connector-curvature="0"
         sodipodi:nodetypes="ssccs" />
    </g>
  </g>
</svg>
